<svg width="24" height="18" viewBox="0 0 44 34" fill="none" xmlns="http://www.w3.org/2000/svg">
<path d="M3.3 34C2.42 34 1.65 33.6812 0.99 33.0437C0.33 32.4062 0 31.6625 0 30.8125V3.1875C0 2.3375 0.33 1.59375 0.99 0.95625C1.65 0.31875 2.42 0 3.3 0H40.7C41.58 0 42.35 0.31875 43.01 0.95625C43.67 1.59375 44 2.3375 44 3.1875V30.8125C44 31.6625 43.67 32.4062 43.01 33.0437C42.35 33.6812 41.58 34 40.7 34H3.3ZM22 17.6375C22.1833 17.6375 22.3392 17.6109 22.4675 17.5578C22.5958 17.5047 22.7333 17.4427 22.88 17.3719L40.15 6.48125C40.3333 6.375 40.4708 6.23333 40.5625 6.05625C40.6542 5.87917 40.7 5.68437 40.7 5.47187C40.7 5.01146 40.4892 4.64844 40.0675 4.38281C39.6458 4.11719 39.215 4.12604 38.775 4.40937L22 14.7687L5.28 4.40937C4.84 4.12604 4.4 4.10833 3.96 4.35625C3.52 4.60417 3.3 4.95833 3.3 5.41875C3.3 5.63125 3.355 5.8349 3.465 6.02969C3.575 6.22448 3.70333 6.375 3.85 6.48125L21.12 17.3719C21.2667 17.4427 21.4042 17.5047 21.5325 17.5578C21.6608 17.6109 21.8167 17.6375 22 17.6375Z" fill="white"/>
</svg>
