<svg width="157" height="157" viewBox="0 0 157 157" fill="none" xmlns="http://www.w3.org/2000/svg">
<rect width="157" height="157" fill="white"/>
<rect width="157" height="157" fill="white"/>
<rect width="157" height="157" fill="white"/>
<path d="M116.878 51.9157C116.09 51.9157 115.429 51.6441 114.897 51.1037C114.365 50.5634 114.098 49.8915 114.098 49.091C114.098 48.2905 114.365 47.6187 114.897 47.0783C115.429 46.538 116.09 46.2664 116.878 46.2664C117.666 46.2664 118.328 46.538 118.859 47.0783C119.391 47.6187 119.659 48.2905 119.659 49.091C119.659 49.8915 119.391 50.5634 118.859 51.1037C118.328 51.6441 117.666 51.9157 116.878 51.9157ZM105.751 51.9157C104.963 51.9157 104.302 51.6441 103.77 51.1037C103.238 50.5634 102.971 49.8915 102.971 49.091C102.971 48.2905 103.238 47.6187 103.77 47.0783C104.302 46.538 104.963 46.2664 105.751 46.2664C106.539 46.2664 107.2 46.538 107.732 47.0783C108.264 47.6187 108.532 48.2905 108.532 49.091C108.532 49.8915 108.264 50.5634 107.732 51.1037C107.2 51.6441 106.539 51.9157 105.751 51.9157ZM128.005 51.9157C127.217 51.9157 126.556 51.6441 126.024 51.1037C125.492 50.5634 125.225 49.8915 125.225 49.091C125.225 48.2905 125.492 47.6187 126.024 47.0783C126.556 46.538 127.217 46.2664 128.005 46.2664C128.793 46.2664 129.455 46.538 129.987 47.0783C130.518 47.6187 130.786 48.2905 130.786 49.091C130.786 49.8915 130.518 50.5634 129.987 51.1037C129.455 51.6441 128.793 51.9157 128.005 51.9157ZM116.878 63.2199C116.09 63.2199 115.429 62.9483 114.897 62.408C114.365 61.8677 114.098 61.1958 114.098 60.3953C114.098 59.5948 114.365 58.923 114.897 58.3826C115.429 57.8423 116.09 57.5707 116.878 57.5707C117.666 57.5707 118.328 57.8423 118.859 58.3826C119.391 58.923 119.659 59.5948 119.659 60.3953C119.659 61.1958 119.391 61.8677 118.859 62.408C118.328 62.9483 117.666 63.2199 116.878 63.2199ZM105.751 63.2199C104.963 63.2199 104.302 62.9483 103.77 62.408C103.238 61.8677 102.971 61.1958 102.971 60.3953C102.971 59.5948 103.238 58.923 103.77 58.3826C104.302 57.8423 104.963 57.5707 105.751 57.5707C106.539 57.5707 107.2 57.8423 107.732 58.3826C108.264 58.923 108.532 59.5948 108.532 60.3953C108.532 61.1958 108.264 61.8677 107.732 62.408C107.2 62.9483 106.539 63.2199 105.751 63.2199ZM128.005 63.2199C127.217 63.2199 126.556 62.9483 126.024 62.408C125.492 61.8677 125.225 61.1958 125.225 60.3953C125.225 59.5948 125.492 58.923 126.024 58.3826C126.556 57.8423 127.217 57.5707 128.005 57.5707C128.793 57.5707 129.455 57.8423 129.987 58.3826C130.518 58.923 130.786 59.5948 130.786 60.3953C130.786 61.1958 130.518 61.8677 129.987 62.408C129.455 62.9483 128.793 63.2199 128.005 63.2199ZM96.0143 74.5242C94.9027 74.5242 93.929 74.1011 93.0932 73.252C92.2574 72.4029 91.8409 71.4137 91.8409 70.2844V26.4796C91.8409 25.3504 92.2574 24.3612 93.0932 23.512C93.929 22.6629 94.9027 22.2398 96.0143 22.2398H100.534V18H105.053V22.2398H128.698V18H133.217V22.2398H137.737C138.848 22.2398 139.822 22.6629 140.658 23.512C141.494 24.3612 141.91 25.3504 141.91 26.4796V70.2844C141.91 71.4137 141.494 72.4029 140.658 73.252C139.822 74.1011 138.848 74.5242 137.737 74.5242H96.0143ZM96.0143 70.2844H137.742V39.9052H96.0143V70.2844Z" fill="black"/>
<path d="M105.616 68.3243C108.266 61.9058 98.7813 51.7456 84.4312 45.6308C70.0811 39.5161 56.2999 39.7624 53.6499 46.181C51 52.5995 60.4848 62.7597 74.8349 68.8744C89.185 74.9891 102.966 74.7428 105.616 68.3243Z" fill="#FFCE07"/>
<path d="M42.6345 68.8177C49.0428 59.8181 51.4694 50.4879 48.0544 47.9781C44.6394 45.4684 36.676 50.7295 30.2677 59.7291C23.8594 68.7288 21.4328 78.059 24.8478 80.5687C28.2628 83.0785 36.2262 77.8174 42.6345 68.8177Z" fill="#FFCE07"/>
<path d="M49.4629 100.477C47.5915 100.477 46.024 99.8369 44.7605 98.5532C43.4997 97.2724 42.8665 95.6799 42.8665 93.7759C42.8665 91.8747 43.4969 90.2822 44.7605 88.9986C46.0212 87.7178 47.5887 87.0745 49.4629 87.0745C51.3343 87.0745 52.9017 87.7149 54.1653 88.9986C55.426 90.2794 56.0592 91.8718 56.0592 93.7759C56.0592 95.6771 55.4288 97.2695 54.1653 98.5532C52.9017 99.8369 51.3343 100.477 49.4629 100.477ZM80.3565 100.477C78.4851 100.477 76.9176 99.8369 75.654 98.5532C74.3905 97.2695 73.7601 95.6799 73.7601 93.7759C73.7601 91.8718 74.3905 90.2822 75.654 88.9986C76.9176 87.7149 78.4822 87.0745 80.3565 87.0745C82.2279 87.0745 83.7953 87.7149 85.0589 88.9986C86.3196 90.2794 86.9528 91.8718 86.9528 93.7759C86.9528 95.6799 86.3224 97.2695 85.0589 98.5532C83.7953 99.8369 82.2307 100.477 80.3565 100.477ZM64.8478 130.625C76.4082 130.625 86.2183 126.531 94.278 118.343C102.338 110.155 106.368 100.188 106.368 88.4439C106.368 86.294 106.204 84.1841 105.878 82.1171C105.551 80.0501 105.146 78.146 104.657 76.4106C103.027 76.8252 101.257 77.1139 99.3434 77.2798C97.4298 77.4456 95.4571 77.5285 93.4197 77.5285C85.5232 77.5285 78.0517 75.8732 71.0107 72.5654C63.9697 69.2576 57.9644 64.5432 52.9974 58.4222C50.2283 65.1207 46.2604 70.9729 41.0908 75.9761C35.9213 80.9792 29.9975 84.8474 23.3224 87.5748V88.4439C23.3224 100.188 27.3522 110.155 35.4119 118.343C43.4772 126.531 53.2873 130.625 64.8478 130.625ZM64.8478 138.07C58.091 138.07 51.7395 136.766 45.7961 134.161C39.8526 131.557 34.683 128.02 30.2874 123.555C25.8917 119.089 22.4106 113.837 19.8469 107.799C17.2832 101.761 16 95.3111 16 88.4439C16 81.5796 17.2832 75.127 19.8469 69.0889C22.4106 63.0508 25.8917 57.7989 30.2874 53.3332C34.683 48.8676 39.8526 45.331 45.7961 42.7265C51.7395 40.122 58.0882 38.8184 64.8478 38.8184C71.6073 38.8184 77.956 40.122 83.8995 42.7265C89.8429 45.331 95.0125 48.8676 99.4081 53.3332C103.804 57.7989 107.285 63.0508 109.849 69.0889C112.412 75.127 113.696 81.5768 113.696 88.4439C113.696 95.3083 112.412 101.761 109.849 107.799C107.285 113.837 103.804 119.089 99.4081 123.555C95.0125 128.02 89.8429 131.557 83.8995 134.161C77.956 136.766 71.6045 138.07 64.8478 138.07ZM53.6137 47.8755C60.7785 56.3952 67.3917 62.2246 73.459 65.3694C79.5235 68.5114 86.1789 70.0838 93.4253 70.0838C95.3783 70.0838 96.9261 70.0438 98.0658 69.9609C99.2055 69.878 100.466 69.6292 101.851 69.2175C98.1868 62.519 93.2002 57.0184 86.8909 52.7157C80.5816 48.413 73.2339 46.2631 64.8478 46.2631C62.6499 46.2631 60.5731 46.4289 58.6201 46.7605C56.6671 47.0893 54.9983 47.461 53.6137 47.8755ZM24.4283 78.7664C28.3372 77.2769 32.7948 73.9062 37.8011 68.6543C42.8074 63.4024 46.3701 57.0556 48.4864 49.6109C41.4032 52.8358 36.0507 56.9527 32.4289 61.9558C28.8043 66.959 26.1365 72.5625 24.4283 78.7664Z" fill="#010101"/>
</svg>
