<svg width="157" height="157" viewBox="0 0 157 157" fill="none" xmlns="http://www.w3.org/2000/svg">
<rect width="157" height="157" fill="white"/>
<rect width="157" height="157" fill="white"/>
<rect width="157" height="157" fill="white"/>
<path d="M124.826 39.1758H29.5479V132.625H124.826V39.1758Z" fill="#FFCE00"/>
<path d="M33.9339 139C31.3518 139 29.2208 138.142 27.5312 136.428C25.8448 134.715 25 132.547 25 129.924V39.1755C25 36.5523 25.8448 34.3874 27.5312 32.6709C29.2176 30.9576 31.3518 30.0994 33.9339 30.0994H64.0067C64.7022 26.5696 66.414 23.6722 69.1422 21.404C71.8703 19.1357 75.024 18 78.5969 18C82.1698 18 85.3203 19.1357 88.0516 21.404C90.7797 23.6722 92.4915 26.5728 93.1871 30.0994H123.26C125.842 30.0994 127.973 30.9576 129.663 32.6709C131.349 34.3841 132.194 36.5523 132.194 39.1755V129.924C132.194 132.547 131.349 134.712 129.663 136.428C127.976 138.142 125.842 139 123.26 139H33.9339ZM33.9339 129.924H123.26V39.1755H114.326V52.7881H42.8677V39.1755H33.9339V129.924ZM78.5969 39.1755C80.2833 39.1755 81.6998 38.5947 82.8399 37.4364C83.9801 36.2781 84.5517 34.8391 84.5517 33.1258C84.5517 31.4125 83.9801 29.9735 82.8399 28.8152C81.6998 27.6569 80.2833 27.0761 78.5969 27.0761C76.9105 27.0761 75.494 27.6569 74.3538 28.8152C73.2137 29.9735 72.642 31.4125 72.642 33.1258C72.642 34.8391 73.2137 36.2781 74.3538 37.4364C75.4972 38.5947 76.9105 39.1755 78.5969 39.1755Z" fill="black"/>
<path d="M88.0357 120.783H50.3439V43.8633H110.813V93.4513" fill="white"/>
<path d="M111.417 41.1633C112.722 42.4894 113.373 44.0349 113.373 45.7998V97.4689L88.1627 123.081H50.3438C48.6065 123.081 47.0821 122.419 45.78 121.093C44.4747 119.767 43.8236 118.222 43.8236 116.457V45.7998C43.8236 44.0349 44.4747 42.4862 45.78 41.1633C47.0853 39.8372 48.6065 39.1758 50.3438 39.1758H106.853C108.59 39.1758 110.111 39.8372 111.417 41.1633ZM106.853 94.5973V45.7998H50.3438V116.457H84.901V94.5973H106.853Z" fill="black"/>
</svg>
