<svg width="157" height="157" viewBox="0 0 157 157" fill="none" xmlns="http://www.w3.org/2000/svg">
<rect width="157" height="157" fill="white"/>
<rect width="157" height="157" fill="white"/>
<rect width="157" height="157" fill="white"/>
<path d="M78.142 107.195V82.3124V107.195ZM78.142 82.3124C80.5126 82.3143 82.8739 82.0133 85.1699 81.4167L78.142 82.3124ZM78.142 82.3124C75.7714 82.3143 73.4101 82.0133 71.1141 81.4167L78.142 82.3124ZM88.6839 116.859C81.7182 118.198 74.5658 118.198 67.6001 116.859H88.6839ZM85.1699 128.154C80.4974 128.649 75.7866 128.649 71.1141 128.154H85.1699ZM88.6839 107.195V106.285C88.6839 101.626 91.7668 97.6451 95.7493 95.3084C102.44 91.389 107.666 85.3468 110.618 78.1181C113.569 70.8894 114.082 62.8777 112.076 55.3243C110.07 47.771 105.658 41.0978 99.5222 36.3386C93.3869 31.5794 85.8712 29 78.1397 29C70.4082 29 62.8925 31.5794 56.7571 36.3386C50.6218 41.0978 46.2093 47.771 44.2033 55.3243C42.1974 62.8777 42.71 70.8894 45.6617 78.1181C48.6134 85.3468 53.8394 91.389 60.53 95.3084C64.5125 97.6451 67.6001 101.626 67.6001 106.285V107.195" fill="#FFCE00"/>
<path d="M78.142 107.195V82.3124M78.142 82.3124C80.5126 82.3143 82.8739 82.0133 85.1699 81.4167M78.142 82.3124C75.7714 82.3143 73.4101 82.0133 71.1141 81.4167M88.6839 116.859C81.7182 118.198 74.5658 118.198 67.6001 116.859M85.1699 128.154C80.4974 128.649 75.7866 128.649 71.1141 128.154M88.6839 107.195V106.285C88.6839 101.626 91.7668 97.6451 95.7493 95.3085C102.44 91.389 107.666 85.3468 110.618 78.1181C113.569 70.8894 114.082 62.8777 112.076 55.3243C110.07 47.771 105.658 41.0978 99.5222 36.3386C93.3869 31.5794 85.8712 29 78.1397 29C70.4082 29 62.8925 31.5794 56.7571 36.3386C50.6218 41.0978 46.2093 47.771 44.2033 55.3243C42.1974 62.8777 42.71 70.8894 45.6617 78.1181C48.6134 85.3468 53.8394 91.389 60.53 95.3085C64.5125 97.6451 67.6001 101.626 67.6001 106.285V107.195" stroke="black" stroke-width="6" stroke-linecap="round" stroke-linejoin="round"/>
<path d="M78.0045 75.9276L75.8627 74.0176C68.2557 67.2603 63.2335 62.7892 63.2335 57.3342C63.2335 52.8631 66.8081 49.376 71.3576 49.376C73.9277 49.376 76.3945 50.548 78.0045 52.3856C79.6145 50.548 82.0813 49.376 84.6514 49.376C89.2009 49.376 92.7755 52.8631 92.7755 57.3342C92.7755 62.7892 87.7534 67.2603 80.1463 74.0176L78.0045 75.9276Z" fill="black"/>
</svg>
