<svg width="79" height="125" viewBox="0 0 79 125" fill="none" xmlns="http://www.w3.org/2000/svg">
<path d="M19.738 72.7846L13.4287 122.105L39.5001 105.863L65.5716 122.105L59.2623 72.7305" fill="#5F5F5F"/>
<path d="M19.738 72.7846L13.4287 122.105L39.5001 105.863L65.5716 122.105L59.2623 72.7305" stroke="#010101" stroke-width="5" stroke-linecap="round" stroke-linejoin="round"/>
<path d="M39.5 78.7939C59.6584 78.7939 76 61.8269 76 40.897C76 19.9671 59.6584 3 39.5 3C19.3416 3 3 19.9671 3 40.897C3 61.8269 19.3416 78.7939 39.5 78.7939Z" fill="#D9D9D9" stroke="#010101" stroke-width="5" stroke-linecap="round" stroke-linejoin="round"/>
<path d="M41.712 39.3704C43.6747 39.6904 45.1787 40.4264 46.224 41.5784C47.2693 42.7091 47.792 44.1171 47.792 45.8024C47.792 47.1037 47.4507 48.3091 46.768 49.4184C46.0853 50.5064 45.04 51.3811 43.632 52.0424C42.2453 52.7037 40.5387 53.0344 38.512 53.0344C36.9333 53.0344 35.376 52.8317 33.84 52.4264C32.3253 51.9997 31.0347 51.4024 29.968 50.6344L31.984 46.6664C32.8373 47.3064 33.8187 47.8077 34.928 48.1704C36.0587 48.5117 37.2107 48.6824 38.384 48.6824C39.6853 48.6824 40.7093 48.4371 41.456 47.9464C42.2027 47.4344 42.576 46.7197 42.576 45.8024C42.576 43.9677 41.1787 43.0504 38.384 43.0504H36.016V39.6264L40.624 34.4104H31.088V30.2504H46.768V33.6104L41.712 39.3704Z" fill="#010101"/>
<path d="M41.712 39.3704L40.9605 38.7107L39.77 40.067L41.5511 40.3574L41.712 39.3704ZM46.224 41.5784L45.4834 42.2504L45.4897 42.2572L46.224 41.5784ZM46.768 49.4184L47.6151 49.9499L47.6197 49.9425L46.768 49.4184ZM43.632 52.0424L43.2069 51.1372L43.2015 51.1398L43.632 52.0424ZM33.84 52.4264L33.5689 53.3889L33.5768 53.3912L33.5848 53.3933L33.84 52.4264ZM29.968 50.6344L29.0765 50.1814L28.6884 50.9453L29.3837 51.4459L29.968 50.6344ZM31.984 46.6664L32.584 45.8664L31.6317 45.1521L31.0925 46.2134L31.984 46.6664ZM34.928 48.1704L34.6173 49.1209L34.6281 49.1244L34.639 49.1277L34.928 48.1704ZM41.456 47.9464L42.0052 48.7821L42.0134 48.7767L42.0215 48.7711L41.456 47.9464ZM36.016 43.0504H35.016V44.0504H36.016V43.0504ZM36.016 39.6264L35.2666 38.9643L35.016 39.2479V39.6264H36.016ZM40.624 34.4104L41.3734 35.0725L42.8418 33.4104H40.624V34.4104ZM31.088 34.4104H30.088V35.4104H31.088V34.4104ZM31.088 30.2504V29.2504H30.088V30.2504H31.088ZM46.768 30.2504H47.768V29.2504H46.768V30.2504ZM46.768 33.6104L47.5195 34.2701L47.768 33.987V33.6104H46.768ZM41.5511 40.3574C43.3535 40.6512 44.6281 41.3078 45.4834 42.2504L46.9646 40.9064C45.7292 39.545 43.9958 38.7295 41.8729 38.3834L41.5511 40.3574ZM45.4897 42.2572C46.3474 43.185 46.792 44.3429 46.792 45.8024H48.792C48.792 43.8912 48.1912 42.2331 46.9583 40.8995L45.4897 42.2572ZM46.792 45.8024C46.792 46.9185 46.5021 47.9424 45.9163 48.8943L47.6197 49.9425C48.3992 48.6757 48.792 47.289 48.792 45.8024H46.792ZM45.9209 48.8869C45.3599 49.7811 44.4782 50.5401 43.2069 51.1373L44.0571 52.9475C45.6018 52.222 46.8108 51.2317 47.6151 49.9499L45.9209 48.8869ZM43.2015 51.1398C41.9851 51.7199 40.4352 52.0344 38.512 52.0344V54.0344C40.6421 54.0344 42.5056 53.6875 44.0625 52.945L43.2015 51.1398ZM38.512 52.0344C37.02 52.0344 35.5484 51.843 34.0952 51.4595L33.5848 53.3933C35.2036 53.8205 36.8467 54.0344 38.512 54.0344V52.0344ZM34.1111 51.4639C32.6873 51.0628 31.5076 50.5107 30.5523 49.8229L29.3837 51.4459C30.5618 52.2941 31.9634 52.9367 33.5689 53.3889L34.1111 51.4639ZM30.8595 51.0873L32.8755 47.1193L31.0925 46.2134L29.0765 50.1814L30.8595 51.0873ZM31.384 47.4664C32.3327 48.1779 33.4137 48.7274 34.6173 49.1209L35.2387 47.2199C34.2237 46.888 33.3419 46.4348 32.584 45.8664L31.384 47.4664ZM34.639 49.1277C35.8628 49.4972 37.1121 49.6824 38.384 49.6824V47.6824C37.3092 47.6824 36.2546 47.5263 35.217 47.2131L34.639 49.1277ZM38.384 49.6824C39.7961 49.6824 41.0368 49.4184 42.0052 48.7821L40.9068 47.1107C40.3818 47.4557 39.5746 47.6824 38.384 47.6824V49.6824ZM42.0215 48.7711C43.0444 48.0697 43.576 47.0442 43.576 45.8024H41.576C41.576 46.3952 41.3609 46.7991 40.8905 47.1217L42.0215 48.7711ZM43.576 45.8024C43.576 44.5871 43.0881 43.5664 42.0768 42.9024C41.1389 42.2867 39.8589 42.0504 38.384 42.0504V44.0504C39.7037 44.0504 40.5198 44.2728 40.9792 44.5743C41.3652 44.8278 41.576 45.183 41.576 45.8024H43.576ZM38.384 42.0504H36.016V44.0504H38.384V42.0504ZM37.016 43.0504V39.6264H35.016V43.0504H37.016ZM36.7654 40.2885L41.3734 35.0725L39.8746 33.7483L35.2666 38.9643L36.7654 40.2885ZM40.624 33.4104H31.088V35.4104H40.624V33.4104ZM32.088 34.4104V30.2504H30.088V34.4104H32.088ZM31.088 31.2504H46.768V29.2504H31.088V31.2504ZM45.768 30.2504V33.6104H47.768V30.2504H45.768ZM46.0165 32.9507L40.9605 38.7107L42.4635 40.0301L47.5195 34.2701L46.0165 32.9507Z" fill="#010101"/>
</svg>
