<svg width="79" height="122" viewBox="0 0 79 122" fill="none" xmlns="http://www.w3.org/2000/svg">
<path d="M19.738 70.8544L13.4287 118.81L39.5001 103.018L65.5716 118.81L59.2623 70.8018" fill="#5F5F5F"/>
<path d="M19.738 70.8544L13.4287 118.81L39.5001 103.018L65.5716 118.81L59.2623 70.8018" stroke="black" stroke-width="6" stroke-linecap="round" stroke-linejoin="round"/>
<path d="M39.5 76.6969C59.6584 76.6969 76 60.1993 76 39.8484C76 19.4976 59.6584 3 39.5 3C19.3416 3 3 19.4976 3 39.8484C3 60.1993 19.3416 76.6969 39.5 76.6969Z" fill="#E05AA0" stroke="black" stroke-width="6" stroke-linecap="round" stroke-linejoin="round"/>
<path d="M31.056 51.1621V47.8021L39.696 39.6421C40.3787 39.0234 40.88 38.4688 41.2 37.9781C41.52 37.4874 41.7333 37.0394 41.84 36.6341C41.968 36.2288 42.032 35.8554 42.032 35.5141C42.032 34.6181 41.7227 33.9354 41.104 33.4661C40.5067 32.9754 39.6213 32.7301 38.448 32.7301C37.5093 32.7301 36.6347 32.9114 35.824 33.2741C35.0347 33.6368 34.3627 34.2021 33.808 34.9701L30.032 32.5381C30.8853 31.2581 32.08 30.2448 33.616 29.4981C35.152 28.7514 36.9227 28.3781 38.928 28.3781C40.592 28.3781 42.0427 28.6554 43.28 29.2101C44.5387 29.7434 45.5093 30.5008 46.192 31.4821C46.896 32.4634 47.248 33.6368 47.248 35.0021C47.248 35.7274 47.152 36.4528 46.96 37.1781C46.7893 37.8821 46.4267 38.6288 45.872 39.4181C45.3387 40.2074 44.5493 41.0928 43.504 42.0741L36.336 48.8261L35.344 46.9381H47.984V51.1621H31.056Z" fill="#010101"/>
</svg>
