<svg width="157" height="158" viewBox="0 0 157 158" fill="none" xmlns="http://www.w3.org/2000/svg">
<rect y="0.626709" width="157" height="157" fill=""/>
<rect y="0.626709" width="157" height="157" fill=""/>
<rect y="0.626709" width="157" height="157" fill=""/>
<path d="M116.878 52.5424C116.09 52.5424 115.429 52.2708 114.897 51.7304C114.365 51.1901 114.098 50.5182 114.098 49.7177C114.098 48.9172 114.365 48.2454 114.897 47.705C115.429 47.1647 116.09 46.8931 116.878 46.8931C117.666 46.8931 118.328 47.1647 118.86 47.705C119.391 48.2454 119.659 48.9172 119.659 49.7177C119.659 50.5182 119.391 51.1901 118.86 51.7304C118.328 52.2708 117.666 52.5424 116.878 52.5424ZM105.751 52.5424C104.963 52.5424 104.302 52.2708 103.77 51.7304C103.238 51.1901 102.971 50.5182 102.971 49.7177C102.971 48.9172 103.238 48.2454 103.77 47.705C104.302 47.1647 104.963 46.8931 105.751 46.8931C106.539 46.8931 107.201 47.1647 107.732 47.705C108.264 48.2454 108.532 48.9172 108.532 49.7177C108.532 50.5182 108.264 51.1901 107.732 51.7304C107.201 52.2708 106.539 52.5424 105.751 52.5424ZM128.006 52.5424C127.218 52.5424 126.556 52.2708 126.024 51.7304C125.492 51.1901 125.225 50.5182 125.225 49.7177C125.225 48.9172 125.492 48.2454 126.024 47.705C126.556 47.1647 127.218 46.8931 128.006 46.8931C128.793 46.8931 129.455 47.1647 129.987 47.705C130.519 48.2454 130.786 48.9172 130.786 49.7177C130.786 50.5182 130.519 51.1901 129.987 51.7304C129.455 52.2708 128.793 52.5424 128.006 52.5424ZM116.878 63.8466C116.09 63.8466 115.429 63.5751 114.897 63.0347C114.365 62.4944 114.098 61.8225 114.098 61.022C114.098 60.2215 114.365 59.5497 114.897 59.0093C115.429 58.469 116.09 58.1974 116.878 58.1974C117.666 58.1974 118.328 58.469 118.86 59.0093C119.391 59.5497 119.659 60.2215 119.659 61.022C119.659 61.8225 119.391 62.4944 118.86 63.0347C118.328 63.5751 117.666 63.8466 116.878 63.8466ZM105.751 63.8466C104.963 63.8466 104.302 63.5751 103.77 63.0347C103.238 62.4944 102.971 61.8225 102.971 61.022C102.971 60.2215 103.238 59.5497 103.77 59.0093C104.302 58.469 104.963 58.1974 105.751 58.1974C106.539 58.1974 107.201 58.469 107.732 59.0093C108.264 59.5497 108.532 60.2215 108.532 61.022C108.532 61.8225 108.264 62.4944 107.732 63.0347C107.201 63.5751 106.539 63.8466 105.751 63.8466ZM128.006 63.8466C127.218 63.8466 126.556 63.5751 126.024 63.0347C125.492 62.4944 125.225 61.8225 125.225 61.022C125.225 60.2215 125.492 59.5497 126.024 59.0093C126.556 58.469 127.218 58.1974 128.006 58.1974C128.793 58.1974 129.455 58.469 129.987 59.0093C130.519 59.5497 130.786 60.2215 130.786 61.022C130.786 61.8225 130.519 62.4944 129.987 63.0347C129.455 63.5751 128.793 63.8466 128.006 63.8466ZM96.0144 75.1509C94.9028 75.1509 93.9292 74.7278 93.0934 73.8787C92.2576 73.0296 91.8411 72.0404 91.8411 70.9111V27.1063C91.8411 25.9771 92.2576 24.9879 93.0934 24.1388C93.9292 23.2896 94.9028 22.8665 96.0144 22.8665H100.534V18.6267H105.053V22.8665H128.698V18.6267H133.217V22.8665H137.737C138.848 22.8665 139.822 23.2896 140.658 24.1388C141.494 24.9879 141.91 25.9771 141.91 27.1063V70.9111C141.91 72.0404 141.494 73.0296 140.658 73.8787C139.822 74.7278 138.848 75.1509 137.737 75.1509H96.0144ZM96.0144 70.9111H137.742V40.5319H96.0144V70.9111Z" fill="black"/>
<path d="M105.616 68.9508C108.266 62.5323 98.7813 52.3721 84.4312 46.2574C70.0811 40.1427 56.2999 40.389 53.6499 46.8075C51 53.226 60.4848 63.3862 74.8349 69.5009C89.185 75.6156 102.966 75.3694 105.616 68.9508Z" fill="#FFCE07"/>
<path d="M42.6344 69.4445C49.0427 60.4448 51.4693 51.1146 48.0543 48.6049C44.6393 46.0951 36.6759 51.3562 30.2676 60.3559C23.8593 69.3555 21.4327 78.6857 24.8477 81.1955C28.2627 83.7052 36.2261 78.4441 42.6344 69.4445Z" fill="#FFCE07"/>
<path d="M49.4629 101.104C47.5915 101.104 46.024 100.464 44.7605 99.1803C43.4997 97.8995 42.8665 96.3071 42.8665 94.403C42.8665 92.5018 43.4969 90.9094 44.7605 89.6257C46.0212 88.3449 47.5887 87.7016 49.4629 87.7016C51.3343 87.7016 52.9017 88.342 54.1653 89.6257C55.426 90.9065 56.0592 92.499 56.0592 94.403C56.0592 96.3042 55.4288 97.8967 54.1653 99.1803C52.9017 100.464 51.3343 101.104 49.4629 101.104ZM80.3565 101.104C78.4851 101.104 76.9176 100.464 75.654 99.1803C74.3905 97.8967 73.7601 96.3071 73.7601 94.403C73.7601 92.499 74.3905 90.9094 75.654 89.6257C76.9176 88.342 78.4822 87.7016 80.3565 87.7016C82.2279 87.7016 83.7953 88.342 85.0589 89.6257C86.3196 90.9065 86.9528 92.499 86.9528 94.403C86.9528 96.3071 86.3224 97.8967 85.0589 99.1803C83.7953 100.464 82.2307 101.104 80.3565 101.104ZM64.8478 131.252C76.4082 131.252 86.2183 127.158 94.278 118.97C102.338 110.782 106.368 100.816 106.368 89.0711C106.368 86.9212 106.204 84.8113 105.878 82.7442C105.551 80.6772 105.146 78.7732 104.657 77.0378C103.027 77.4523 101.257 77.7411 99.3434 77.9069C97.4298 78.0727 95.4571 78.1556 93.4197 78.1556C85.5232 78.1556 78.0517 76.5003 71.0107 73.1925C63.9697 69.8847 57.9644 65.1703 52.9974 59.0493C50.2283 65.7478 46.2604 71.6001 41.0908 76.6032C35.9213 81.6064 29.9975 85.4745 23.3224 88.202V89.0711C23.3224 100.816 27.3522 110.782 35.4119 118.97C43.4772 127.158 53.2873 131.252 64.8478 131.252ZM64.8478 138.697C58.091 138.697 51.7395 137.393 45.7961 134.788C39.8526 132.184 34.683 128.647 30.2874 124.182C25.8917 119.716 22.4106 114.464 19.8469 108.426C17.2832 102.388 16 95.9383 16 89.0711C16 82.2067 17.2832 75.7541 19.8469 69.716C22.4106 63.6779 25.8917 58.426 30.2874 53.9604C34.683 49.4947 39.8526 45.9582 45.7961 43.3537C51.7395 40.7492 58.0882 39.4455 64.8478 39.4455C71.6073 39.4455 77.956 40.7492 83.8995 43.3537C89.8429 45.9582 95.0125 49.4947 99.4081 53.9604C103.804 58.426 107.285 63.6779 109.849 69.716C112.412 75.7541 113.696 82.2039 113.696 89.0711C113.696 95.9354 112.412 102.388 109.849 108.426C107.285 114.464 103.804 119.716 99.4081 124.182C95.0125 128.647 89.8429 132.184 83.8995 134.788C77.956 137.393 71.6045 138.697 64.8478 138.697ZM53.6137 48.5026C60.7785 57.0223 67.3917 62.8517 73.459 65.9965C79.5235 69.1385 86.1789 70.7109 93.4253 70.7109C95.3783 70.7109 96.9261 70.6709 98.0658 70.588C99.2055 70.5051 100.466 70.2564 101.851 69.8447C98.1868 63.1462 93.2002 57.6455 86.8909 53.3428C80.5816 49.0401 73.2339 46.8902 64.8478 46.8902C62.6499 46.8902 60.5731 47.056 58.6201 47.3876C56.6671 47.7164 54.9983 48.0881 53.6137 48.5026ZM24.4283 79.3936C28.3372 77.904 32.7948 74.5333 37.8011 69.2815C42.8074 64.0296 46.3701 57.6827 48.4864 50.238C41.4032 53.4629 36.0507 57.5798 32.4289 62.583C28.8043 67.5861 26.1365 73.1896 24.4283 79.3936Z" fill="#010101"/>
</svg>
