<svg width="33" height="29" viewBox="0 0 58 53" fill="none" xmlns="http://www.w3.org/2000/svg">
<path d="M28.2573 52.4031V52.4141L52.4825 28.8019C59.0918 22.3587 59.0288 11.9747 52.3395 5.6059C46.1823 -0.253056 35.064 -1.0743 28.1772 3.85042" fill="#E05AA0"/>
<path d="M28.1004 3.86278C21.4817 -1.07586 10.7822 -0.25735 4.86192 5.60453C-1.56709 11.9707 -1.62759 22.3579 4.72443 28.8013L28.1774 52.4141L28.1004 3.86278Z" fill="#FFCE00"/>
<path opacity="0.8" d="M35.4748 28.4663C35.4748 20.5567 35.909 10.878 30.3281 5.15266C29.822 4.63395 29.2772 4.16572 28.7075 3.73393C28.1294 4.16852 27.5819 4.64236 27.0702 5.16387C21.4921 10.8864 21.9235 20.568 21.9235 28.4775C26.3982 28.6373 31.0029 28.6261 35.4748 28.4663Z" fill="#FF9100"/>
<path d="M12.5234 12.02C13.8228 13.401 15.3985 13.401 16.6979 12.02" stroke="white" stroke-width="2" stroke-miterlimit="10" stroke-linecap="round" stroke-linejoin="round"/>
<path d="M39.657 12.02C40.9564 13.401 42.532 13.401 43.8314 12.02" stroke="white" stroke-width="2" stroke-miterlimit="10" stroke-linecap="round" stroke-linejoin="round"/>
</svg>
