<svg width="38" height="53" viewBox="0 0 38 53" fill="none" xmlns="http://www.w3.org/2000/svg">
<path d="M18.7597 40.5345V28.3256V40.5345ZM18.7597 28.3256C19.9229 28.3265 21.0815 28.1789 22.208 27.8861L18.7597 28.3256ZM18.7597 28.3256C17.5966 28.3265 16.438 28.1789 15.3115 27.8861L18.7597 28.3256ZM23.9322 45.2762C20.5144 45.9328 17.0051 45.9328 13.5873 45.2762H23.9322ZM22.208 50.8179C19.9154 51.0607 17.6041 51.0607 15.3115 50.8179H22.208ZM23.9322 40.5345V40.088C23.9322 37.8021 25.4448 35.8486 27.3988 34.7022C30.6816 32.7791 33.2458 29.8145 34.694 26.2677C36.1423 22.7209 36.3938 18.7899 35.4096 15.0838C34.4253 11.3778 32.2603 8.10354 29.25 5.76843C26.2397 3.43333 22.5521 2.16772 18.7586 2.16772C14.9651 2.16772 11.2775 3.43333 8.26719 5.76843C5.25686 8.10354 3.09185 11.3778 2.10763 15.0838C1.1234 18.7899 1.37491 22.7209 2.82317 26.2677C4.27143 29.8145 6.8356 32.7791 10.1184 34.7022C12.0724 35.8486 13.5873 37.8021 13.5873 40.088V40.5345" fill="#FFCE00"/>
<path d="M18.7597 40.5345V28.3256M18.7597 28.3256C19.9229 28.3265 21.0815 28.1789 22.208 27.8861M18.7597 28.3256C17.5966 28.3265 16.438 28.1789 15.3115 27.8861M23.9322 45.2762C20.5144 45.9328 17.0051 45.9328 13.5873 45.2762M22.208 50.8179C19.9154 51.0607 17.6041 51.0607 15.3115 50.8179M23.9322 40.5345V40.088C23.9322 37.8021 25.4448 35.8486 27.3988 34.7022C30.6816 32.7791 33.2458 29.8145 34.694 26.2677C36.1423 22.7209 36.3938 18.7899 35.4096 15.0838C34.4253 11.3778 32.2603 8.10354 29.25 5.76843C26.2397 3.43333 22.5521 2.16772 18.7586 2.16772C14.9651 2.16772 11.2775 3.43333 8.26719 5.76843C5.25686 8.10354 3.09185 11.3778 2.10763 15.0838C1.1234 18.7899 1.37491 22.7209 2.82317 26.2677C4.27143 29.8145 6.8356 32.7791 10.1184 34.7022C12.0724 35.8486 13.5873 37.8021 13.5873 40.088V40.5345" stroke="black" stroke-width="3" stroke-linecap="round" stroke-linejoin="round"/>
<path d="M18.6922 25.1927L17.6413 24.2555C13.9089 20.94 11.4448 18.7463 11.4448 16.0698C11.4448 13.876 13.1987 12.165 15.4309 12.165C16.6919 12.165 17.9023 12.7401 18.6922 13.6417C19.4822 12.7401 20.6925 12.165 21.9536 12.165C24.1858 12.165 25.9396 13.876 25.9396 16.0698C25.9396 18.7463 23.4755 20.94 19.7431 24.2555L18.6922 25.1927Z" fill="black"/>
</svg>
