<svg width="44" height="49" viewBox="0 0 44 49" fill="none" xmlns="http://www.w3.org/2000/svg">
<path d="M40.5444 8.49438H2.32442V45.9808H40.5444V8.49438Z" fill="#FFCE00"/>
<path d="M4.08376 48.5383C3.048 48.5383 2.19314 48.194 1.51538 47.5067C0.838884 46.8195 0.5 45.9497 0.5 44.8975V8.49439C0.5 7.44214 0.838884 6.57367 1.51538 5.88511C2.19187 5.19785 3.048 4.85357 4.08376 4.85357H16.1472C16.4263 3.43762 17.1129 2.27536 18.2073 1.36547C19.3017 0.455591 20.5667 0 22 0C23.4332 0 24.6971 0.455591 25.7927 1.36547C26.8871 2.27536 27.5737 3.43892 27.8527 4.85357H39.9162C40.952 4.85357 41.8069 5.19785 42.4846 5.88511C43.1611 6.57238 43.5 7.44214 43.5 8.49439V44.8975C43.5 45.9497 43.1611 46.8182 42.4846 47.5067C41.8081 48.194 40.952 48.5383 39.9162 48.5383H4.08376ZM4.08376 44.8975H39.9162V8.49439H36.3325V13.955H7.66752V8.49439H4.08376V44.8975ZM22 8.49439C22.6765 8.49439 23.2447 8.26142 23.7021 7.79678C24.1594 7.33213 24.3887 6.75487 24.3887 6.06761C24.3887 5.38034 24.1594 4.80309 23.7021 4.33845C23.2447 3.8738 22.6765 3.64082 22 3.64082C21.3235 3.64082 20.7553 3.8738 20.2979 4.33845C19.8406 4.80309 19.6112 5.38034 19.6112 6.06761C19.6112 6.75487 19.8406 7.33213 20.2979 7.79678C20.7566 8.26142 21.3235 8.49439 22 8.49439Z" fill="black"/>
<path d="M25.7864 41.2308H10.6666V10.375H34.9235V30.2669" fill="white"/>
<path d="M35.1654 9.29166C35.6891 9.82362 35.9502 10.4436 35.9502 11.1516V31.8782L25.8372 42.1523H10.6664C9.96956 42.1523 9.35804 41.8869 8.8357 41.355C8.31209 40.823 8.05092 40.2031 8.05092 39.4951V11.1516C8.05092 10.4436 8.31209 9.82232 8.8357 9.29166C9.35932 8.75971 9.96956 8.49438 10.6664 8.49438H33.3347C34.0316 8.49438 34.6418 8.75971 35.1654 9.29166ZM33.3347 30.7263V11.1516H10.6664V39.4951H24.5288V30.7263H33.3347Z" fill="black"/>
</svg>
